<svg width="87" height="2" viewBox="0 0 87 2" fill="none" xmlns="http://www.w3.org/2000/svg">
<path opacity="0.5" d="M6.398 0.33V1.408L0.812 1.408L0.812 0.33L6.398 0.33ZM17.8414 0.33V1.408L12.2554 1.408V0.33L17.8414 0.33ZM29.2847 0.33V1.408L23.6987 1.408V0.33L29.2847 0.33ZM40.7281 0.33V1.408L35.1421 1.408V0.33L40.7281 0.33ZM52.1714 0.33V1.408L46.5854 1.408V0.33L52.1714 0.33ZM63.6148 0.33V1.408L58.0288 1.408V0.33L63.6148 0.33ZM75.0582 0.33V1.408L69.4722 1.408V0.33L75.0582 0.33ZM86.5015 0.33V1.408L80.9155 1.408V0.33L86.5015 0.33Z" fill="black" fill-opacity="0.5"/>
</svg>
