<svg width="2" height="236" viewBox="0 0 2 236" fill="none" xmlns="http://www.w3.org/2000/svg">
<path opacity="0.5" d="M1.67 6.398L0.592 6.398L0.592 0.811999L1.67 0.812L1.67 6.398ZM1.67 17.8414L0.591999 17.8414L0.592 12.2554L1.67 12.2554L1.67 17.8414ZM1.67 29.2847L0.591999 29.2847L0.591999 23.6987L1.67 23.6987L1.67 29.2847ZM1.67 40.7281L0.591998 40.7281L0.591999 35.1421L1.67 35.1421L1.67 40.7281ZM1.67 52.1714L0.591998 52.1714L0.591998 46.5854L1.67 46.5854L1.67 52.1714ZM1.67 63.6148L0.591997 63.6148L0.591998 58.0288L1.67 58.0288L1.67 63.6148ZM1.67 75.0582L0.591997 75.0582L0.591997 69.4722L1.67 69.4722L1.67 75.0582ZM1.67 86.5015L0.591996 86.5015L0.591997 80.9155L1.67 80.9155L1.67 86.5015ZM1.67 97.9449L0.591996 97.9449L0.591996 92.3589L1.67 92.3589L1.67 97.9449ZM1.67 109.388L0.591995 109.388L0.591996 103.802L1.67 103.802L1.67 109.388ZM1.67 120.832L0.591995 120.832L0.591995 115.246L1.67 115.246L1.67 120.832ZM1.66999 132.275L0.591994 132.275L0.591995 126.689L1.66999 126.689L1.66999 132.275ZM1.66999 143.718L0.591994 143.718L0.591994 138.132L1.66999 138.132L1.66999 143.718ZM1.66999 155.162L0.591993 155.162L0.591994 149.576L1.66999 149.576L1.66999 155.162ZM1.66999 166.605L0.591993 166.605L0.591993 161.019L1.66999 161.019L1.66999 166.605ZM1.66999 178.048L0.591992 178.048L0.591993 172.462L1.66999 172.462L1.66999 178.048ZM1.66999 189.492L0.591992 189.492L0.591992 183.906L1.66999 183.906L1.66999 189.492ZM1.66999 200.935L0.591991 200.935L0.591992 195.349L1.66999 195.349L1.66999 200.935ZM1.66999 212.378L0.591991 212.378L0.591991 206.792L1.66999 206.792L1.66999 212.378ZM1.66999 223.822L0.59199 223.822L0.591991 218.236L1.66999 218.236L1.66999 223.822ZM1.66999 235.265L0.59199 235.265L0.59199 229.679L1.66999 229.679L1.66999 235.265Z" fill="black" fill-opacity="0.5"/>
</svg>
